Coordinates
version=1
nRows=13
nColumns=36
inDegrees=yes

Units are S.I. units (second, meters, Newtons, ...)
If the header above contains a line with 'inDegrees', this indicates whether rotational values are in degrees (yes) or radians (no).

endheader
time	pelvis_tilt	pelvis_list	pelvis_rotation	pelvis_tx	pelvis_ty	pelvis_tz	hip_flexion_r	hip_adduction_r	hip_rotation_r	knee_angle_r	knee_angle_r_beta	ankle_angle_r	subtalar_angle_r	mtp_angle_r	hip_flexion_l	hip_adduction_l	hip_rotation_l	knee_angle_l	knee_angle_l_beta	ankle_angle_l	subtalar_angle_l	mtp_angle_l	lumbar_extension	lumbar_bending	lumbar_rotation	arm_flex_r	arm_add_r	arm_rot_r	elbow_flex_r	pro_sup_r	arm_flex_l	arm_add_l	arm_rot_l	elbow_flex_l	pro_sup_l
      5.95000000	    -27.20705186	      0.19727100	      4.78045313	      0.68371099	      0.68537859	      0.08413802	     78.80180574	    -21.35680033	     -6.45424613	     80.05993644	      1.39730949	     24.58387741	    -14.58063240	     -7.49999987	     74.83349621	    -25.17084690	    -20.70502601	     75.73608174	      1.32184399	     22.83660062	      0.35402101	     -7.49999987	    -21.18995771	     -6.09635574	     -1.21116212	     92.26728562	     14.18010379	     69.23436874	    125.82142536	     82.96249022	     91.90076352	     10.46811171	     72.49318533	    117.72743070	     75.47965426
      5.96666670	    -26.73800539	      0.44914178	      4.83509473	      0.68368525	      0.69885978	      0.08413864	     76.67887071	    -21.56585021	     -7.14000124	     77.60379625	      1.35444176	     24.28906512	    -13.74955702	     -7.49999987	     72.59766780	    -24.47211406	    -21.63286402	     73.19419206	      1.27747964	     21.98671626	      0.51356773	     -7.49999987	    -20.74261628	     -6.48504571	     -1.08809530	     92.06099291	     14.11548371	     67.11387719	    126.31346450	     89.92933108	     92.03693560	     10.52535097	     71.20911542	    117.60788354	     79.07727207
      5.98333330	    -26.32352702	      0.57166221	      5.05242133	      0.68460873	      0.71366573	      0.08324168	     74.30186802	    -21.81827678	     -8.29766155	     74.89314646	      1.30713199	     23.53778642	    -13.52084285	     -7.49999987	     70.40009147	    -23.60458992	    -22.55514532	     70.23664022	      1.22586063	     21.17515413	      1.44134895	     -7.49999987	    -20.08869597	     -6.65761495	     -0.82538359	     92.10108125	     13.80326818	     66.62561648	    126.20592807	     87.88837941	     91.55452208	     10.53197268	     71.22084605	    116.94044796	     77.49100450
      6.00000000	    -26.42117692	      0.76589167	      4.94481046	      0.68457812	      0.72311763	      0.08248000	     72.72734670	    -21.82724491	     -9.51476655	     71.84384919	      1.25391172	     22.19104093	    -13.95584874	     -7.49999987	     68.45069698	    -22.71755403	    -23.50156428	     67.04169575	      1.17009833	     20.70350795	      2.25443073	     -7.49999987	    -18.84174900	     -6.91053156	     -0.69624415	     91.65817754	     13.98656479	     66.05678816	    126.31061826	     86.58509995	     91.42921691	     10.42983487	     71.18194556	    116.29132302	     76.26155301
      6.01666670	    -26.48989647	      0.91412296	      4.69648622	      0.68948616	      0.73289225	      0.07997336	     71.01336806	    -21.70441463	    -10.37049201	     69.20715632	      1.20789274	     21.01507527	    -13.76541697	     -7.49999987	     66.42487939	    -21.97119875	    -24.40774827	     63.89933954	      1.11525386	     19.85661194	      2.85313767	     -7.49999987	    -17.39842997	     -7.02279430	     -0.40378362	     90.87265536	     14.06019328	     65.87387913	    126.68055495	     86.70829626	     90.42616367	     10.52283528	     70.64647080	    116.37963756	     76.26232421
      6.03333330	    -26.29737712	      1.11146824	      4.33749813	      0.69400894	      0.74936282	      0.08299498	     68.45226877	    -21.11419700	    -11.27178428	     65.62012233	      1.14528719	     19.58943136	    -14.36134862	     -7.49999987	     63.83990712	    -21.40318061	    -25.44016206	     60.69903307	      1.05939798	     18.83811476	      3.47735808	     -7.49999987	    -16.10780479	     -7.41404068	      0.25427761	     89.91250973	     13.86377246	     66.13178619	    126.81468071	     84.04673864	     89.25761873	     10.34509200	     70.70559186	    115.93008205	     74.29572234
      6.05000000	    -25.99323147	      1.37641006	      3.80007695	      0.69409033	      0.76122562	      0.07691314	     65.99150092	    -20.68033285	    -12.02390509	     61.99100197	      1.08194709	     18.18867451	    -14.19367091	     -7.49999987	     61.11647184	    -20.60476471	    -26.49463545	     57.54566735	      1.00436137	     17.63371073	      3.08742972	     -7.49999987	    -15.01500244	     -7.56267326	      0.41394059	     88.47580487	     13.84019758	     66.66614977	    127.02727009	     84.36135109	     87.05862810	      9.77882274	     70.76799166	    115.16717687	     74.34858976
      6.06666670	    -25.66548468	      1.33986880	      3.51388573	      0.69403494	      0.77024106	      0.08176820	     63.68423925	    -20.06732192	    -12.96282221	     58.75403146	      1.02545130	     17.00857252	    -14.03020514	     -7.49999987	     59.03806554	    -19.92038053	    -26.89062360	     54.49577060	      0.95113063	     16.38243822	      2.79498206	     -7.49999987	    -13.81730196	     -7.61060024	      1.01326704	     87.25212099	     13.69079532	     66.39925107	    127.23874079	     84.61559478	     86.29820223	      9.92307425	     70.32315881	    114.92872107	     74.37893653
      6.08333330	    -25.18281937	      1.32867950	      2.97280435	      0.69448806	      0.77610021	      0.07585306	     61.84642288	    -19.48099134	    -13.30011088	     56.24714472	      0.98169787	     15.98379478	    -14.24096243	     -7.49999987	     57.67023313	    -19.15569033	    -26.33677993	     52.95026081	      0.92415639	     15.73399537	      1.46165524	     -7.49999987	    -12.71361179	     -7.33856044	      1.41834115	     86.53765817	     13.69566969	     66.13218274	    127.49643877	     85.44680870	     84.63415836	     10.22333792	     69.06195999	    113.35463872	     74.42993359
      6.10000000	    -24.64359845	      1.42299393	      2.80185926	      0.70502845	      0.78435948	      0.06971088	     59.75428852	    -19.43166469	    -13.49467567	     54.09281878	      0.94409779	     15.06049807	    -13.81939162	     -7.49999987	     55.59616766	    -18.12423982	    -26.27645178	     50.74874057	      0.88573261	     15.21102634	      1.34953615	     -7.49999987	    -11.35083248	     -6.98033123	      1.47306030	     85.08159136	     13.47336190	     65.71497781	    127.85956697	     85.61771299	     82.46955337	     10.40129730	     68.79621061	    113.58942492	     74.43149737
      6.11666670	    -24.11606059	      1.61169476	      2.43753130	      0.71010107	      0.79735061	      0.06745247	     57.00839902	    -19.06768381	    -13.68427238	     50.77745306	      0.88623374	     13.87028713	    -13.42562466	     -7.49999987	     53.00189628	    -16.86095847	    -26.20718999	     47.91177539	      0.83621823	     14.64199996	      0.93793627	     -7.49999987	     -9.86962441	     -6.72503553	      1.74528178	     83.95582577	     13.55580045	     65.74165380	    127.88901623	     89.36859032	     80.01262595	     10.55653766	     68.14934958	    114.13547232	     76.00189120
      6.13333330	    -23.69073584	      1.76567495	      2.23190646	      0.71466605	      0.81031352	      0.07066951	     53.93678422	    -18.40158541	    -13.98315703	     46.74514882	      0.81585676	     12.84793014	    -12.90678940	     -7.49999987	     50.30902034	    -15.55977702	    -26.05735103	     44.31261939	      0.77340111	     13.22976670	      0.51267642	     -7.49999987	     -8.63587156	     -6.71361740	      1.81660382	     82.39370749	     13.80430601	     66.43260153	    127.82183659	     89.29089246	     77.84485658	     10.10628657	     68.09588026	    114.16462881	     75.91065291
      6.15000000	    -23.11214345	      1.85626711	      2.19733489	      0.72003668	      0.81980145	      0.06741326	     50.62143072	    -17.85669882	    -14.67719799	     42.34467234	      0.73905395	     11.23311341	    -13.08553748	     -7.49999987	     47.61626204	    -14.22530327	    -25.84853319	     40.65878665	      0.70962970	     11.59129825	     -0.53757838	     -7.49999987	     -7.61123977	     -6.36390547	      2.07740257	     81.00351218	     13.60605172	     66.78173521	    127.41147573	     88.73087548	     76.17871173	      9.31567135	     67.87513758	    115.03559734	     75.74946546
